<?xml version="1.0" encoding="utf-8"?>
<!-- Generator: Adobe Illustrator 10.0, SVG Export Plug-In . SVG Version: 3.0.0 Build 76)  -->
<!DOCTYPE svg PUBLIC "-//W3C//DTD SVG 1.0//EN"    "http://www.w3.org/TR/2001/REC-SVG-20010904/DTD/svg10.dtd" [
	<!ENTITY ns_flows "http://ns.adobe.com/Flows/1.0/">
	<!ENTITY ns_extend "http://ns.adobe.com/Extensibility/1.0/">
	<!ENTITY ns_ai "http://ns.adobe.com/AdobeIllustrator/10.0/">
	<!ENTITY ns_svg "http://www.w3.org/2000/svg">
	<!ENTITY ns_xlink "http://www.w3.org/1999/xlink">
]>
<svg  xmlns:x="&ns_extend;" xmlns:i="&ns_ai;" xmlns:graph="&ns_graphs;"
	 xmlns="&ns_svg;" xmlns:xlink="&ns_xlink;" xmlns:a="http://ns.adobe.com/AdobeSVGViewerExtensions/3.0/" width="363" height="118"
	 viewBox="0.5 0.3 363 118" overflow="visible" enable-background="new 0.5 0.3 363 118" xml:space="preserve">
	<g id="Layer_1_5_">
		<g>
			<path d="M10.3,83.1C6.2,79,1,63.6,1.7,49c0.5-12.3,2.2-23.9,6.1-30.6c3.1-5.2,6.8-9.5,11-13c0.6-0.5,1.4-1.1,2.3-1.7
				C25,1.2,28.9,0,32.7,0c6.1,0,9.2,3.2,9.2,9.7c0,2.3-0.6,5.5-1.7,9.8c-0.4,1.5-2.4,6.3-6,14.3C43.9,21.6,52,14.4,58.6,12.2
				c2.2-0.8,4.1-1.2,5.6-1.2c3.6,0,5.4,1.9,5.4,5.7c0,2.3-0.6,4.9-1.8,8c-1.5,3.8-3.7,8.5-6.5,14.1c11-12.9,20.2-19.3,27.5-19.3
				c4.3,0,6.5,1.9,6.5,5.6c0,1.9-0.6,4.4-1.8,7.3c-3.9,7.3-8.4,16-13.4,26.1c-0.7,1.7-1.1,3-1.1,4c0,2.1,1.6,1.9,4.8-0.6
				c1.8-1.5,4.2-3.5,7.1-6c0.8-0.8,1.8-1.3,2.9-1.3c0.7,0,1.1,0.3,1.1,0.8c0,0.6-0.6,1.7-1.8,3.1c-3.2,3.7-6.6,7-10.4,10
				c-5.1,4-9.4,6-12.9,6c-4.7,0-7.1-2.4-7.1-7.3c0-2,0.4-4,1.3-5.8c3.7-8.2,6.7-15.2,8.9-21c0.8-2,1.2-3.6,1.2-4.7
				c0-0.9-0.3-1.4-1-1.4c-0.9,0-2.3,0.8-4.1,2.3c-4.6,4-9.6,9.6-14.9,17l-3.3,6.6c-2,4-3.3,6.5-3.8,7.3c-1,1.6-2.4,3-4.1,4.3
				c-3.3,2.5-6.4,3.7-9.4,3.7c-3.1,0-4.7-0.9-4.7-2.6c0-0.9,0.4-2.1,1.1-3.7c2.8-6.2,8.4-17.1,16.7-32.8c1.9-3.6,2.9-6.4,2.9-8.3
				c0-1.2-0.4-1.8-1.2-1.8c-2.1,0-5.8,3.3-11.2,10c-3.8,4.7-7.9,10.4-12.1,16.8C20.3,64,18,67.6,19.6,64.3c-2,4.1-4.2,6.6-6.1,7.9
				c-3.2,2.3-6.4,3.4-9.6,3.4c-2.6,0-3.9-1.1-3.9-3.3c0-1.8,0.8-4,2.8-8.6c1.7-4.6,2.2-4,3.8-7.5c5.9-12.8,14.2-27.2,18.8-38.4
				c0.8-1.9,1.2-3.5,1.2-4.8c0-2.3-1-3.5-3.1-3.5c-0.5,0-1,0.1-1.5,0.2l-0.6,0.3c-3.3,1.6-6.5,5.3-9.6,11
				c-3.4,6.2-3.7,22.7-3.9,28.7c-0.1,3.5,5.5,26.4,7.9,30.1c41.5,61.6,358.9-8.6,339.7-3.6c-0.3,0.1-3.3,27.4-6.3,27
				C271.4,92.8,84,155.3,10.3,83.1z"/>
			<path d="M134.2,30.3c1.3-2.6,1.9-3.9,1.9-4c1-2.2,2.2-3.5,3.7-3.9c1-0.3,2.6,0.8,4.8,3.1c1.7,1.9,2.6,3.7,2.6,5.4
				c0,1.2-0.7,3.3-2.2,6.1c-1.7,3.3-4.3,8.2-7.7,14.6c-1.3,2.4-1.9,4.4-1.9,6.1c0,1.1,0.2,1.8,0.7,2c0.5,0.3,1.9-0.6,4.3-2.5
				c2.1-1.7,3.9-3.4,5.1-4.9c0.8-0.9,1.3-1.4,1.5-1.4c0.4,0,0.8,0.3,1.4,1s0.8,1.2,0.8,1.6c0,0.6-0.4,1.3-1.3,2.2
				c-0.8,0.9-1.7,1.8-2.6,2.8c-1.4,1.5-3.8,3.7-7.3,6.8c-3.5,3-5.9,4.9-7.1,5.7c-2.2,1.4-4.3,2-6.4,2c-1.6,0-3.1-0.5-4.4-1.4
				c-1.3-0.9-2-2.4-2-4.3c0-1,0.2-2,0.5-3.2c-3.6,3-6.6,5.2-9,6.5c-2.4,1.3-4.8,2-7.2,2c-2.4,0-4.4-0.7-5.9-2.2
				c-1.6-1.5-2.3-3.4-2.3-5.7c0-2.3,0.6-4.8,1.8-7.3c-1.4,0.1-2.3,0-2.7-0.3c-0.4-0.4-0.6-1.4-0.6-3.1c0-0.4,0.6-1.1,1.7-2.1
				c1.1-1,2.2-2,3.3-3c1.6-1.4,4.1-4,7.4-7.9c2-2.8,3.8-5,5.4-6.5c2.9-2.6,6.2-4.4,9.9-5.5c1.7-0.5,3.5-0.8,5.5-0.8
				C129.2,28.5,132,29.1,134.2,30.3z M113.4,60.4c1.4,0,3.3-1.3,5.9-4c1.9-2.1,3.6-4.1,5-6.1c3.1-4.7,4.7-8.3,4.7-10.7
				c0-1.6-0.6-2.3-1.9-2.3c-1.7,0-5,3.3-9.8,10c-3.7,5.2-5.5,8.8-5.5,11C111.7,59.6,112.2,60.4,113.4,60.4z"/>
			<path d="M143.5,72.3c5.8-11,10.6-20.5,14.6-28.5c-4.9,6.9-7.9,10.8-9.2,11.8c-0.6,0.5-1.5,0.8-2.6,0.8c-1.6-0.9-1.9-2-1.1-3.2
				c1.3-1.5,4-4.8,8.1-9.9c2.1-3.1,4.2-6.1,6.3-9.2c2.4-3.4,4.2-5.2,5.5-5.6c1.7-0.5,2.8-0.6,3.2-0.6c0.6,0,1.2,0.4,1.7,1.1
				c2.8,3.4,4.3,5.8,4.3,7.3c0,1.9-1.3,5.7-4,11.4c-2.1,4.8-4.6,10.2-7.4,16.2c0.2-0.1,3.3-3,9.4-8.6c1.2-1.2,2.4-2.3,3.6-3.5
				c1.2-1,2.1-1.5,2.9-1.5c1.3,0,1.9,0.6,1.9,1.8c0,0.7-0.4,1.6-1.1,2.9c-0.7,1.3-3.2,3.9-7.3,7.7c-5.1,4.7-9.4,7.9-13.1,9.5
				c-3.2,8.2-9.3,16.8-18.3,25.8c-2.7,2.7-6.9,4-12.8,4c-5.5,0-8.9-1.3-10.3-3.8c-1.2-2.2-1.8-4.3-1.8-6.3c0-3.3,1.7-6.3,5.2-8.9
				c1.8-1.4,4.9-3.1,9.4-5.2C135,75.7,139.3,73.9,143.5,72.3z M138.6,81.6c-2.6,1.2-5,2.6-7.3,4.1c-0.9,0.6-1.8,1.6-2.7,2.8
				c-0.9,1.4-1.4,2.7-1.4,3.8c0,1.7,0.9,2.6,2.7,2.6c1.2,0,2.5-1.1,3.8-3.4c1.3-2.6,2.6-5.2,3.9-7.7
				C137.8,83.4,138.1,82.7,138.6,81.6z M186.9,5.7c1.2,0.8,1.7,2.3,1.7,4.5c0,3.2-1.1,6.1-3.2,8.5c-2.1,2.4-4.7,3.6-7.8,3.6
				c-1.9,0-3.5-0.5-4.8-1.4c-1.3-0.9-1.9-2.5-1.9-4.8c0-2.7,1-5.5,3.1-8.3c1.9-2.5,4.4-3.8,7.4-3.8C183.5,4.1,185.3,4.6,186.9,5.7z"
				/>
			<path d="M220.6,51.1c1,0.4,1.6,0.9,1.6,1.6c0,0.7-0.5,1.7-1.6,2.8c-3.3,4.4-7.1,6.8-11.5,7.1c-1.4,0.1-2.6-0.1-3.6-0.6
				c-5.7,7.5-12.1,11.3-19,11.3c-3.3,0-5.9-1.1-7.9-3.2c-1.9-2.1-2.9-5-2.9-8.6c0-1.6,0.2-3.2,0.6-4.9c-0.3,0.3-0.6,0.4-1,0.4
				c-1.3,0-1.9-0.6-1.9-1.9c0-0.6,0.3-1.3,0.8-1.8c3.2-4,6.6-8,10.3-11.8c5.7-6.1,10.8-10.2,15.2-12.2c2.5-1.2,4.9-1.7,7.2-1.7
				c4.4,0,7.4,2.2,8.8,6.7c0.3,1,0.5,2.1,0.5,3.4c0,4.3-1.6,9.7-4.9,16.1c0.8,0.5,1.2,1.4,1.2,2.7c2.2-0.5,4-1.9,5.2-4.2
				C218.7,51.1,219.6,50.8,220.6,51.1z M193.1,63.4c0.5,0.2,0.9,0.3,1.4,0.3c2.1,0,3.9-1.8,5.5-5.5c-0.8-1.5-1.3-3-1.3-4.6
				c0-0.9,0.2-1.7,0.5-2.5c0.8-2.1,2.9-2.9,6.3-2.3c2.5-4.9,3.8-8.5,3.8-10.9c0-1.8-0.9-2.7-2.6-2.7c-2.6,0-6.1,4-10.5,12.1
				c-3.4,6.1-5.1,10.3-5.1,12.7C191.2,61.7,191.8,62.9,193.1,63.4z"/>
			<path d="M229.7,36.5c-1.5-1.2-2.2-2.7-2.2-4.6c0-1.5,0.5-3.2,1.5-5.1c1.6-3.1,4-4.7,7.1-4.7c1.2,0,2.2,0.3,3,1
				c0.8,0.6,1.2,1.6,1.2,3c0,1.3-0.4,2.8-1.2,4.4c1.7,1,4.2,0.9,7.6-0.2c2.9-1,4.9-1.5,6-1.5c1.7,0,2.8,0.7,3.1,2.2
				c0.1,0.5,0.2,1,0.2,1.6c0,1.1-0.3,2.3-1,3.6c-0.6,1.3-1.3,2.6-1.9,3.8c-2.1,4.5-4.5,9.8-7.2,15.8c-0.8,2.1-0.8,3.4,0,3.9
				c1.1,0,2.1-0.5,2.9-1.7c1.6-1.4,3.5-3.3,5.8-5.6c0.6-0.9,1.5-1.4,2.6-1.4c0.6,0,1.1,0.2,1.4,0.6c0.5,0.5,0.8,1,0.8,1.4
				c0,0.5-0.6,1.4-1.7,2.8c-6.2,7.5-12.6,12.9-19.1,16c-1.8,0.9-3.6,1.4-5.2,1.4c-2.5,0-4.4-0.9-5.9-2.6c-1.5-1.7-2.1-3.6-1.9-5.4
				c0.5-4.1,3.8-10,9.9-17.7c2.4-3,3.6-5.3,3.6-7c0-1.6-1.4-2.4-4.2-2.4c-7,9.1-12,15.2-15,18.1c-1.1,1.1-2.2,1.3-3.4,0.5
				c-0.5-0.3-0.8-0.7-0.8-1.3c0-0.6,0.3-1.1,0.8-1.6c2.8-3.1,5-5.6,6.5-7.6C225.5,42.9,227.8,39.6,229.7,36.5z"/>
			<path d="M253.6,57.6c-0.8,0-1.2-0.3-1.2-0.8s0.3-1.3,1-2.3c3.4-4.2,7.5-9.5,12.5-16.1c4.8-7.4,8-10.9,9.7-10.5
				c1.2,0.3,2.3,1,3.5,2.2c1.2,1.2,1.9,2.4,2.2,3.6c0.6,2.5,0.6,4.8,0,6.8c-0.3,1.2-1.5,3.3-3.6,6.3c2.3-2.2,4.4-4.2,6.3-5.9
				c4.6-4.2,8-7,10.2-8.3c1.4-0.9,2.9-1.8,4.4-2.7c1.5-0.9,2.8-1.4,3.9-1.4c1.8,0,3.4,1.1,5.1,3.3c0.3,0.4,0.4,0.9,0.4,1.5
				c0,1.6-1.5,5.3-4.6,11.1c-4.3,8.2-6.4,13-6.4,14.4c0,0.7,0.3,1,0.8,1c1.7,0,4.3-1.5,7.8-4.6c0.1-0.1,0.8-0.9,2.1-2.5
				c0.9-1.1,1.7-1.7,2.2-1.7c0.9,0,1.4,0.7,1.4,2c0,1.2-0.8,2.6-2.4,4.4c-1.6,1.7-4.3,4.3-8.2,7.6c-4.4,3.7-7.4,6-9,6.6
				c-1.6,0.7-3.3,1-5,1c-3.8,0-5.9-1.5-6.3-4.4c-0.5-2.8,2.5-10.2,8.8-22c0.3-0.5,0.4-0.8,0.4-1.2c0-0.3-0.2-0.5-0.7-0.5
				c-1.1,0-2.3,0.6-3.5,1.9c-1.3,1.3-3.7,4-7.2,8.1c-4.1,4.7-6.9,8.2-8.5,10.4c-1.6,2.2-3.5,4.1-5.8,5.8s-4.4,2.5-6.1,2.5
				c-2.3,0-3.5-1.2-3.5-3.6c0-1.1,0.5-2.5,1.6-4.2c1.6-2.7,2.5-4.1,2.5-4.3c1.2-2.4,4-8.1,8.5-17.2
				C259.4,53.2,254.9,57.6,253.6,57.6z"/>
			<path d="M348.2,30.3c1.3-2.6,1.9-3.9,1.9-4c1-2.2,2.2-3.5,3.7-3.9c1-0.3,2.7,0.8,4.8,3.1c1.7,1.9,2.6,3.7,2.6,5.4
				c0,1.2-0.7,3.3-2.2,6.1c-1.7,3.3-4.3,8.2-7.7,14.6c-1.3,2.4-1.9,4.4-1.9,6.1c0,1.1,0.2,1.8,0.7,2c0.5,0.3,1.9-0.6,4.3-2.5
				c2.1-1.7,3.9-3.4,5.1-4.9c0.8-0.9,1.3-1.4,1.5-1.4c0.4,0,0.8,0.3,1.4,1s0.8,1.2,0.8,1.6c0,0.6-0.4,1.3-1.3,2.2s-1.7,1.8-2.6,2.8
				c-1.4,1.5-3.8,3.7-7.3,6.8c-3.5,3-5.9,4.9-7.1,5.7c-2.2,1.4-4.3,2-6.4,2c-1.6,0-3.1-0.5-4.4-1.4c-1.3-0.9-2-2.4-2-4.3
				c0-1,0.2-2,0.5-3.2c-3.6,3-6.6,5.2-9,6.5c-2.4,1.3-4.8,2-7.2,2s-4.4-0.7-5.9-2.2c-1.6-1.5-2.3-3.4-2.3-5.7c0-2.3,0.6-4.8,1.8-7.3
				c-1.4,0.1-2.3,0-2.7-0.3c-0.4-0.4-0.6-1.4-0.6-3.1c0-0.4,0.6-1.1,1.7-2.1c1.1-1,2.2-2,3.3-3c1.6-1.4,4.1-4,7.4-7.9
				c2-2.8,3.8-5,5.4-6.5c2.9-2.6,6.2-4.4,9.9-5.5c1.7-0.5,3.5-0.8,5.5-0.8C343.3,28.5,346.1,29.1,348.2,30.3z M327.5,60.4
				c1.4,0,3.3-1.3,5.9-4c1.9-2.1,3.6-4.1,5-6.1c3.1-4.7,4.7-8.3,4.7-10.7c0-1.6-0.6-2.3-1.9-2.3c-1.8,0-5,3.3-9.8,10
				c-3.7,5.2-5.5,8.8-5.5,11C325.7,59.6,326.3,60.4,327.5,60.4z"/>
		</g>
	</g>
</svg>
